<svg xmlns="http://www.w3.org/2000/svg" width="1200" height="630" viewBox="0 0 1200 630">
  <defs>
    <linearGradient id="bg" x1="0" y1="0" x2="1" y2="1">
      <stop offset="0" stop-color="#11130f"/>
      <stop offset="0.55" stop-color="#171913"/>
      <stop offset="1" stop-color="#0d100c"/>
    </linearGradient>
    <linearGradient id="panel" x1="0" y1="0" x2="1" y2="1">
      <stop offset="0" stop-color="#f7f5ed"/>
      <stop offset="1" stop-color="#e9eadf"/>
    </linearGradient>
    <linearGradient id="accent" x1="0" y1="0" x2="1" y2="1">
      <stop offset="0" stop-color="#6bd190"/>
      <stop offset="1" stop-color="#2f8a5a"/>
    </linearGradient>
    <filter id="shadow" x="-20%" y="-20%" width="140%" height="140%">
      <feDropShadow dx="0" dy="20" stdDeviation="26" flood-color="#000" flood-opacity="0.28"/>
    </filter>
    <pattern id="grid" width="44" height="44" patternUnits="userSpaceOnUse">
      <path d="M44 0H0V44" fill="none" stroke="#ffffff" stroke-opacity="0.045" stroke-width="1"/>
    </pattern>
  </defs>

  <rect width="1200" height="630" fill="url(#bg)"/>
  <rect width="1200" height="630" fill="url(#grid)"/>
  <circle cx="1030" cy="95" r="210" fill="#2f8a5a" fill-opacity="0.12"/>
  <circle cx="116" cy="578" r="170" fill="#6bd190" fill-opacity="0.08"/>

  <g transform="translate(72,74)">
    <text font-family="Inter, -apple-system, BlinkMacSystemFont, 'Segoe UI', sans-serif" font-size="22" font-weight="700" letter-spacing="5" fill="#74d79a">VECTORIO</text>
    <text y="130" font-family="Inter, -apple-system, BlinkMacSystemFont, 'Segoe UI', sans-serif" font-size="76" font-weight="760" fill="#f8f8f2" letter-spacing="-3">
      <tspan x="0">Convert SVGs to</tspan>
    </text>
    <text y="218" font-family="Inter, -apple-system, BlinkMacSystemFont, 'Segoe UI', sans-serif" font-size="76" font-weight="760" fill="#f8f8f2" letter-spacing="-3">
      <tspan x="0" fill="url(#accent)">clean</tspan>
      <tspan> components.</tspan>
    </text>
    <text y="292" font-family="Inter, -apple-system, BlinkMacSystemFont, 'Segoe UI', sans-serif" font-size="30" fill="#d9ded2">
      React · Vue · Svelte · Solid · Batch icon libraries
    </text>
    <g transform="translate(0,346)" font-family="Inter, -apple-system, BlinkMacSystemFont, 'Segoe UI', sans-serif" font-size="22" font-weight="650">
      <rect x="0" y="0" width="128" height="42" rx="21" fill="#263228"/>
      <text x="22" y="22" dominant-baseline="middle" fill="#a6f0bd">No upload</text>
      <rect x="144" y="0" width="132" height="42" rx="21" fill="#263228"/>
      <text x="166" y="22" dominant-baseline="middle" fill="#a6f0bd">No account</text>
      <rect x="292" y="0" width="204" height="42" rx="21" fill="#263228"/>
      <text x="314" y="22" dominant-baseline="middle" fill="#a6f0bd">Runs in-browser</text>
    </g>
  </g>

  <g transform="translate(748,82)" filter="url(#shadow)">
    <rect x="0" y="0" width="380" height="466" rx="28" fill="url(#panel)" stroke="#ffffff" stroke-opacity="0.28"/>
    <g transform="translate(30,30)">
      <rect width="320" height="56" rx="14" fill="#11130f"/>
      <circle cx="28" cy="28" r="7" fill="#ef6a5b"/>
      <circle cx="52" cy="28" r="7" fill="#e7c65c"/>
      <circle cx="76" cy="28" r="7" fill="#65c779"/>
      <text x="108" y="36" font-family="'JetBrains Mono', ui-monospace, Menlo, monospace" font-size="17" fill="#dce5dc">messy-export.svg</text>
    </g>

    <g transform="translate(30,112)">
      <rect width="158" height="156" rx="18" fill="#ffffff" stroke="#d9ded2"/>
      <text x="20" y="38" font-family="'JetBrains Mono', ui-monospace, Menlo, monospace" font-size="16" fill="#6f756b">&lt;svg data...</text>
      <text x="20" y="70" font-family="'JetBrains Mono', ui-monospace, Menlo, monospace" font-size="16" fill="#b46b54">id="a"</text>
      <text x="20" y="102" font-family="'JetBrains Mono', ui-monospace, Menlo, monospace" font-size="16" fill="#8a8f86">xmlns:sketch</text>
      <text x="20" y="134" font-family="'JetBrains Mono', ui-monospace, Menlo, monospace" font-size="16" fill="#6f756b">&lt;/svg&gt;</text>

      <g transform="translate(180,62)" fill="none" stroke="#2f8a5a" stroke-width="6" stroke-linecap="round" stroke-linejoin="round">
        <path d="M0 16H36"/>
        <path d="M22 2L36 16L22 30"/>
      </g>

      <rect x="232" width="96" height="156" rx="18" fill="#11130f"/>
      <text x="280" y="38" text-anchor="middle" font-family="'JetBrains Mono', ui-monospace, Menlo, monospace" font-size="15" fill="#a6f0bd">Icon.tsx</text>
      <text x="280" y="72" text-anchor="middle" font-family="'JetBrains Mono', ui-monospace, Menlo, monospace" font-size="15" fill="#dce5dc">props</text>
      <path d="M256 112L274 130L306 90" fill="none" stroke="#6bd190" stroke-width="8" stroke-linecap="round" stroke-linejoin="round"/>
    </g>

    <g transform="translate(30,304)">
      <rect width="320" height="98" rx="20" fill="#ffffff" stroke="#d9ded2"/>
      <text x="22" y="36" font-family="Inter, -apple-system, BlinkMacSystemFont, 'Segoe UI', sans-serif" font-size="20" font-weight="750" fill="#14140f">Folder to icon library</text>
      <text x="22" y="68" font-family="'JetBrains Mono', ui-monospace, Menlo, monospace" font-size="15" fill="#596057">icons/ · index.ts · package.json</text>
    </g>
  </g>
</svg>
